<?xml version="1.0" encoding="UTF-8"?>
<!DOCTYPE svg PUBLIC "-//W3C//DTD SVG 1.1//EN" "http://www.w3.org/Graphics/SVG/1.1/DTD/svg11.dtd">
<svg xmlns="http://www.w3.org/2000/svg" version="1.1" width="500px" height="143px" style="shape-rendering:geometricPrecision; text-rendering:geometricPrecision; image-rendering:optimizeQuality; fill-rule:evenodd; clip-rule:evenodd" xmlns:xlink="http://www.w3.org/1999/xlink">
<g><path style="opacity:1" fill="#dae7fd" d="M -0.5,-0.5 C 166.167,-0.5 332.833,-0.5 499.5,-0.5C 499.5,47.1667 499.5,94.8333 499.5,142.5C 332.833,142.5 166.167,142.5 -0.5,142.5C -0.5,94.8333 -0.5,47.1667 -0.5,-0.5 Z"/></g>
<g><path style="opacity:1" fill="#2b65eb" d="M 121.5,31.5 C 147.217,28.1803 153.55,37.5136 140.5,59.5C 150.669,71.6384 151.169,84.305 142,97.5C 132.419,106.095 121.253,108.929 108.5,106C 105.734,104.533 103.234,102.7 101,100.5C 102.516,92.0287 103.516,82.6953 104,72.5C 104.5,60.5046 104.667,48.5046 104.5,36.5C 110.33,35.0672 115.997,33.4005 121.5,31.5 Z"/></g>
<g><path style="opacity:1" fill="#2b65eb" d="M 174.5,75.5 C 173.511,80.9753 173.178,86.642 173.5,92.5C 179.167,92.5 184.833,92.5 190.5,92.5C 196.304,92.0862 201.804,93.0862 207,95.5C 206.062,100.118 203.229,103.285 198.5,105C 186.833,105.667 175.167,105.667 163.5,105C 162.667,104.167 161.833,103.333 161,102.5C 160.187,84.6297 160.687,66.7963 162.5,49C 162.167,47.5 161.833,46 161.5,44.5C 157.677,43.5325 156.177,41.1992 157,37.5C 161.28,34.1103 166.113,31.9436 171.5,31C 180.5,30.3333 189.5,30.3333 198.5,31C 202.101,31.94 205.601,33.1067 209,34.5C 209.92,37.3083 209.087,39.4749 206.5,41C 203.583,42.5275 200.583,43.8608 197.5,45C 189.841,45.4997 182.174,45.6664 174.5,45.5C 174.5,50.5 174.5,55.5 174.5,60.5C 184.36,60.1231 194.027,61.2897 203.5,64C 204.672,65.8684 204.505,67.7017 203,69.5C 200.92,71.1233 198.754,72.6233 196.5,74C 188.989,74.1712 181.655,74.6712 174.5,75.5 Z"/></g>
<g><path style="opacity:1" fill="#2b65eb" d="M 234.5,31.5 C 239.179,31.3342 243.845,31.5008 248.5,32C 255.792,34.3045 258.292,39.1379 256,46.5C 251.441,53.0767 245.274,55.2434 237.5,53C 242.383,50.6307 245.05,46.7973 245.5,41.5C 234.669,40.1712 229.503,44.8379 230,55.5C 237.914,60.7436 245.248,66.7436 252,73.5C 258.679,83.7008 257.845,93.2008 249.5,102C 241.839,105.315 233.839,106.315 225.5,105C 215.181,99.7813 213.848,92.7813 221.5,84C 222.5,83.3333 223.5,83.3333 224.5,84C 218.938,89.1626 219.271,93.8292 225.5,98C 233.901,98.9892 240.067,95.8226 244,88.5C 244.706,86.0288 244.373,83.6954 243,81.5C 237.076,75.5724 230.576,70.4058 223.5,66C 217.814,59.1456 216.981,51.6456 221,43.5C 225.048,38.9495 229.548,34.9495 234.5,31.5 Z"/></g>
<g><path style="opacity:1" fill="#2c66eb" d="M 322.5,31.5 C 323.5,31.5 324.5,31.5 325.5,31.5C 321.454,42.3772 313.62,48.0439 302,48.5C 302.681,67.1431 300.681,85.4764 296,103.5C 294.334,106.379 291.834,107.212 288.5,106C 287.107,104.829 286.273,103.329 286,101.5C 285.084,83.5674 285.584,65.734 287.5,48C 281.167,47.6667 274.833,47.3333 268.5,47C 264.708,44.9473 263.542,41.7806 265,37.5C 266.952,35.1064 269.452,33.6064 272.5,33C 289.338,32.8315 306.005,32.3315 322.5,31.5 Z"/></g>
<g><path style="opacity:1" fill="#d6e4fd" d="M 112.5,43.5 C 119.5,43.5 126.5,43.5 133.5,43.5C 130.832,52.4922 125.166,58.8255 116.5,62.5C 115.914,62.2907 115.414,61.9574 115,61.5C 114.825,55.38 113.992,49.38 112.5,43.5 Z"/></g>
<g><path style="opacity:1" fill="#0b0b0c" d="M 479.5,43.5 C 483.5,43.5 487.5,43.5 491.5,43.5C 491.238,64.1864 491.572,84.8531 492.5,105.5C 487.547,104.671 482.547,104.337 477.5,104.5C 480.592,84.2676 481.258,63.9343 479.5,43.5 Z"/></g>
<g><path style="opacity:1" fill="#050606" d="M 29.5,45.5 C 33.7853,46.2949 38.1186,46.6282 42.5,46.5C 42.3379,48.5273 42.5045,50.5273 43,52.5C 50.7182,69.2695 57.8849,86.2695 64.5,103.5C 60.7097,104.93 56.8764,106.264 53,107.5C 49.8723,101.701 47.039,95.7008 44.5,89.5C 39.2202,88.3822 33.8869,88.2155 28.5,89C 25.5997,95.1925 22.5997,101.359 19.5,107.5C 15.8526,104.674 11.8526,102.507 7.5,101C 17.2253,83.3926 24.5586,64.8926 29.5,45.5 Z"/></g>
<g><path style="opacity:1" fill="#08090a" d="M 71.5,45.5 C 75.5,45.5 79.5,45.5 83.5,45.5C 83.5,48.8333 83.5,52.1667 83.5,55.5C 79.8333,55.5 76.1667,55.5 72.5,55.5C 72.6576,52.0977 72.3242,48.7644 71.5,45.5 Z"/></g>
<g><path style="opacity:1" fill="#060707" d="M 372.5,45.5 C 373.833,45.5 375.167,45.5 376.5,45.5C 376.5,49.1667 376.5,52.8333 376.5,56.5C 370.203,55.6803 363.869,55.347 357.5,55.5C 357.087,72.5563 357.754,89.5563 359.5,106.5C 354.476,105.362 349.476,105.362 344.5,106.5C 344.167,106 343.833,105.5 343.5,105C 344.814,101.617 345.647,98.1169 346,94.5C 346.5,81.5043 346.667,68.5043 346.5,55.5C 340.771,55.2123 335.104,55.5456 329.5,56.5C 328.513,53.2317 328.18,49.8984 328.5,46.5C 343.356,48.0233 358.022,47.69 372.5,45.5 Z"/></g>
<g><path style="opacity:1" fill="#040505" d="M 398.5,62.5 C 417.013,62.1778 425.18,71.1778 423,89.5C 419.834,103.683 411,109.183 396.5,106C 384.411,99.0773 380.577,88.9106 385,75.5C 388.076,69.5887 392.576,65.2554 398.5,62.5 Z"/></g>
<g><path style="opacity:1" fill="#060607" d="M 446.5,62.5 C 465.485,62.3204 473.652,71.6537 471,90.5C 467.179,104 458.345,109.167 444.5,106C 439.08,104.212 435.247,100.712 433,95.5C 428.194,80.4696 432.694,69.4696 446.5,62.5 Z"/></g>
<g><path style="opacity:1" fill="#c7d3e7" d="M 35.5,62.5 C 36.3764,62.3691 37.0431,62.7025 37.5,63.5C 39.3629,67.755 41.0296,72.0883 42.5,76.5C 41.9747,77.1924 41.3081,77.6924 40.5,78C 37.1832,78.4983 33.8499,78.665 30.5,78.5C 31.7681,73.0298 33.4348,67.6964 35.5,62.5 Z"/></g>
<g><path style="opacity:1" fill="#060707" d="M 72.5,64.5 C 76.5138,64.3345 80.5138,64.5012 84.5,65C 83.2094,78.4576 83.2094,91.9576 84.5,105.5C 80.2022,104.8 75.8689,104.467 71.5,104.5C 73.7239,91.2247 74.0572,77.8914 72.5,64.5 Z"/></g>
<g><path style="opacity:1" fill="#d7e5fd" d="M 113.5,69.5 C 120.12,70.5137 126.787,71.347 133.5,72C 136.355,84.2799 131.689,92.2799 119.5,96C 116.518,96.498 113.518,96.6646 110.5,96.5C 112.403,87.6115 113.403,78.6115 113.5,69.5 Z"/></g>
<g><path style="opacity:1" fill="#d2dff4" d="M 400.5,73.5 C 408.478,72.1485 412.478,75.4818 412.5,83.5C 412.196,87.1143 411.029,90.4476 409,93.5C 400.519,98.749 395.686,96.249 394.5,86C 394.812,80.8804 396.812,76.7137 400.5,73.5 Z"/></g>
<g><path style="opacity:1" fill="#d5e2f7" d="M 448.5,73.5 C 459.105,73.7892 462.605,79.1225 459,89.5C 456.169,96.5197 451.503,98.1864 445,94.5C 440.877,86.4294 442.044,79.4294 448.5,73.5 Z"/></g>
<g><path style="opacity:1" fill="#91b1f6" d="M 174.5,75.5 C 174.5,80.8333 174.5,86.1667 174.5,91.5C 180.026,91.1786 185.36,91.5119 190.5,92.5C 184.833,92.5 179.167,92.5 173.5,92.5C 173.178,86.642 173.511,80.9753 174.5,75.5 Z"/></g>
</svg>
