<?xml version="1.0" encoding="UTF-8"?>
<svg width="1400" height="800" viewBox="0 0 1400 800" fill="none" xmlns="http://www.w3.org/2000/svg">
  <defs>
    <linearGradient id="canvas-anyword" x1="64" y1="48" x2="1288" y2="748" gradientUnits="userSpaceOnUse">
      <stop stop-color="#fff7f7"/>
      <stop offset="1" stop-color="#ffffff"/>
    </linearGradient>
    <linearGradient id="panel-anyword" x1="910" y1="148" x2="1248" y2="520" gradientUnits="userSpaceOnUse">
      <stop stop-color="#fee2e2"/>
      <stop offset="1" stop-color="#dc2626"/>
    </linearGradient>
  </defs>
  <rect width="1400" height="800" rx="44" fill="url(#canvas-anyword)"/>
  <circle cx="1238" cy="128" r="132" fill="#fee2e2" fill-opacity="0.78"/>
  <circle cx="1140" cy="632" r="172" fill="#fee2e2" fill-opacity="0.55"/>
  <rect x="64" y="64" width="1272" height="672" rx="34" fill="white" stroke="#e2e8f0" stroke-width="2"/>

  <rect x="118" y="126" width="220" height="44" rx="22" fill="#fee2e2"/>
  <text x="228" y="154" text-anchor="middle" font-family="Inter, Arial, sans-serif" font-size="22" font-weight="700" fill="#b91c1c">Writing</text>

  <text x="118" y="258" font-family="Inter, Arial, sans-serif" font-size="84" font-weight="800" fill="#0f172a">Anyword</text>
  <text x="118" y="324" font-family="Inter, Arial, sans-serif" font-size="28" font-weight="600" fill="#b91c1c">Marketing copy</text>
  <text x="118" y="400" font-family="Inter, Arial, sans-serif" font-size="34" font-weight="500" fill="#475569">Landing pages, ads, and campaign messaging</text>

  <rect x="118" y="468" width="478" height="164" rx="28" fill="#fff7f7" stroke="#fee2e2" stroke-width="2"/>
  <text x="160" y="534" font-family="Inter, Arial, sans-serif" font-size="24" font-weight="700" fill="#0f172a">Editorial coverage ready</text>
  <text x="160" y="582" font-family="Inter, Arial, sans-serif" font-size="22" font-weight="500" fill="#475569">Localized summary, fit signals,</text>
  <text x="160" y="616" font-family="Inter, Arial, sans-serif" font-size="22" font-weight="500" fill="#475569">and stable local media are in place.</text>

  <rect x="874" y="142" width="360" height="360" rx="42" fill="url(#panel-anyword)"/>
  <rect x="914" y="182" width="280" height="280" rx="34" fill="rgba(255,255,255,0.88)"/>
  <text x="1054" y="344" text-anchor="middle" font-family="Inter, Arial, sans-serif" font-size="108" font-weight="800" fill="#b91c1c">Aw</text>

  <rect x="874" y="546" width="360" height="86" rx="28" fill="#fee2e2"/>
  <text x="1054" y="600" text-anchor="middle" font-family="Inter, Arial, sans-serif" font-size="28" font-weight="700" fill="#b91c1c">Published seed</text>
</svg>
