<svg xmlns="http://www.w3.org/2000/svg" width="1400" height="800" viewBox="0 0 1400 800" role="img" aria-labelledby="title desc">
  <title id="title">Pika editorial motion concept</title>
  <desc id="desc">An abstract sequence of still frames becoming a motion timeline. Editorial illustration by AI Best Tool, not a product screenshot.</desc>
  <defs>
    <linearGradient id="background" x2="1" y2="1"><stop stop-color="#12162d"/><stop offset="1" stop-color="#28325a"/></linearGradient>
    <linearGradient id="frame" x2="1" y2="1"><stop stop-color="#9a89ef"/><stop offset="1" stop-color="#42d9cf"/></linearGradient>
  </defs>
  <rect width="1400" height="800" rx="36" fill="url(#background)"/>
  <g fill="none" stroke="#fff" stroke-opacity=".28" stroke-width="3">
    <path d="M86 626h1228"/><path d="M168 604v44m266-44v44m266-44v44m266-44v44m266-44v44"/>
  </g>
  <g transform="translate(154 174)">
    <rect width="292" height="344" rx="28" fill="#fff" fill-opacity=".1" stroke="#fff" stroke-opacity=".38"/>
    <rect x="22" y="22" width="248" height="258" rx="19" fill="url(#frame)"/>
    <circle cx="189" cy="95" r="34" fill="#f5d8aa"/>
    <path d="M24 259l71-88 51 48 51-73 73 92v42H22z" fill="#26365d" fill-opacity=".76"/>
    <path d="M91 312h110" stroke="#fff" stroke-width="11" stroke-linecap="round"/>
  </g>
  <path d="M491 345h94m-26-26 27 26-27 26" fill="none" stroke="#aeeae2" stroke-width="12" stroke-linecap="round" stroke-linejoin="round"/>
  <g transform="translate(629 173)">
    <rect width="610" height="344" rx="28" fill="#fff" fill-opacity=".1" stroke="#fff" stroke-opacity=".38"/>
    <rect x="23" y="22" width="564" height="258" rx="19" fill="url(#frame)"/>
    <circle cx="400" cy="95" r="34" fill="#f5d8aa"/>
    <path d="M25 259l145-88 104 48 117-73 196 92v42H23z" fill="#26365d" fill-opacity=".76"/>
    <path d="M236 151l80 36-80 36z" fill="#fff" fill-opacity=".86"/>
    <path d="M206 312h196" stroke="#fff" stroke-width="11" stroke-linecap="round"/>
  </g>
  <text x="92" y="100" fill="#fff" font-family="Arial,sans-serif" font-size="48" font-weight="700">Pika</text>
  <text x="92" y="705" fill="#dde9ff" font-family="Arial,sans-serif" font-size="25">Reference image → motion idea</text>
  <text x="1307" y="704" fill="#a8b9db" text-anchor="end" font-family="Arial,sans-serif" font-size="19">AI Best Tool editorial illustration</text>
</svg>
